<svg width="24" height="24" viewBox="0 0 24 24" fill="none" xmlns="http://www.w3.org/2000/svg">
<path d="M5 14.059C5 13.049 5 12.545 5.222 12.114C5.443 11.684 5.854 11.39 6.675 10.804L10.838 7.83C11.398 7.43 11.68 7.229 12 7.229C12.32 7.229 12.601 7.429 13.162 7.83L17.325 10.803C18.146 11.39 18.557 11.683 18.778 12.114C19 12.544 19 13.049 19 14.058V19C19 19.943 19 20.414 18.707 20.707C18.414 21 17.943 21 17 21H7C6.057 21 5.586 21 5.293 20.707C5 20.414 5 19.943 5 19V14.059Z" fill="black" fill-opacity="0.62"/>
<path d="M3 12.387C3 12.653 3 12.787 3.084 12.828C3.168 12.869 3.274 12.788 3.484 12.623L10.772 6.955C11.362 6.496 11.657 6.267 12 6.267C12.343 6.267 12.638 6.497 13.228 6.955L20.516 12.623C20.726 12.787 20.832 12.869 20.916 12.828C21 12.787 21 12.653 21 12.387V11.978C21 11.498 21 11.258 20.898 11.05C20.797 10.842 20.607 10.694 20.228 10.4L13.228 4.955C12.638 4.496 12.343 4.267 12 4.267C11.657 4.267 11.362 4.497 10.772 4.955L3.772 10.4C3.393 10.694 3.203 10.842 3.102 11.05C3 11.258 3 11.498 3 11.978V12.387ZM12.5 15H11.5C10.9696 15 10.4609 15.2107 10.0858 15.5858C9.71071 15.9609 9.5 16.4696 9.5 17V20.85C9.5 20.933 9.567 21 9.65 21H14.35C14.3898 21 14.4279 20.9842 14.4561 20.9561C14.4842 20.9279 14.5 20.8898 14.5 20.85V17C14.5 16.4696 14.2893 15.9609 13.9142 15.5858C13.5391 15.2107 13.0304 15 12.5 15Z" fill="white"/>
<path d="M17.5 5H16.5C16.2239 5 16 5.22386 16 5.5V8.5C16 8.77614 16.2239 9 16.5 9H17.5C17.7761 9 18 8.77614 18 8.5V5.5C18 5.22386 17.7761 5 17.5 5Z" fill="white"/>
</svg>
